<?xml version="1.0" encoding="utf-8"?><svg viewBox="0 0 110 110" xmlns="http://www.w3.org/2000/svg" xmlns:xlink="http://www.w3.org/1999/xlink"><style>:root>svg{display:none}:root>svg:target{display:block}</style><svg fill="none" viewBox="0 0 110 110" id="icon1" xmlns="http://www.w3.org/2000/svg"><path d="M93.887 32.441c-8.885 0-16.114 7.229-16.114 16.114 0 7.781 5.545 14.291 12.891 15.789v32.765a6.453 6.453 0 01-6.445 6.446 6.453 6.453 0 01-6.446-6.446V84.22c0-7.108-5.782-12.89-12.89-12.89-7.108 0-12.89 5.782-12.89 12.89v12.89a6.453 6.453 0 01-6.446 6.446c-3.61 0-6.66-2.952-6.66-6.446V70.943c3.892-.932 7.403-3.497 9.437-7.056 0 0 20.49-36.067 21.238-37.381a13.431 13.431 0 001.766-6.652c0-7.22-5.736-13.122-12.89-13.396V3.223a3.223 3.223 0 00-6.446 0v12.89a3.223 3.223 0 006.446 0v-3.201c3.598.266 6.445 3.277 6.445 6.942 0 1.21-.317 2.404-.921 3.461l-12.51 22.017H19.876L7.363 23.308a6.974 6.974 0 01-.918-3.454c0-3.665 2.847-6.676 6.446-6.942v3.201a3.223 3.223 0 006.445 0V3.223a3.223 3.223 0 00-6.445 0v3.235C5.737 6.732 0 12.634 0 19.854c0 2.329.61 4.63 1.763 6.645l21.245 37.395c2.031 3.554 5.541 6.118 9.433 7.049v26.166c0 7.167 6.017 12.891 13.106 12.891 7.108 0 12.89-5.783 12.89-12.89V84.218a6.453 6.453 0 016.446-6.446 6.453 6.453 0 016.445 6.446v12.89c0 7.108 5.783 12.891 12.89 12.891 7.109 0 12.891-5.783 12.891-12.89V64.343C104.455 62.847 110 56.336 110 48.554c0-8.884-7.228-16.113-16.113-16.113zM35.664 64.883c-2.791 0-5.629-1.683-7.056-4.18l-5.07-8.926H47.79l-5.067 8.919c-1.431 2.504-4.268 4.187-7.06 4.187zm58.223-6.66c-5.331 0-9.668-4.337-9.668-9.668 0-5.331 4.337-9.668 9.668-9.668 5.33 0 9.668 4.337 9.668 9.668 0 5.33-4.337 9.668-9.668 9.668z" fill="#FFC59E"/></svg><svg fill="none" viewBox="0 0 100 110" id="icon2" xmlns="http://www.w3.org/2000/svg"><path d="M96.047 1.781a3.223 3.223 0 00-5.159-.84c-35.642 35.563-24.78 24.717-37.656 37.594L6.385 78.175c-8.053 6.813-8.563 19.082-1.104 26.54 7.484 7.484 19.741 6.933 26.541-1.103l35.895-42.421c2.617-3.094 2.95-7.466 1.093-10.89l4.835-4.834 2.279 2.278a3.222 3.222 0 004.55.008l9.672-9.609a31.462 31.462 0 005.9-36.363zM26.902 99.448c-4.394 5.193-12.258 5.514-17.064.71-4.81-4.812-4.477-12.675.71-17.064l10.123-8.565 14.796 14.796-8.565 10.123zm12.743-15.06L25.608 70.35l4.938-4.177L43.823 79.45l-4.178 4.937zm8.356-9.875L35.483 61.996l4.937-4.178 11.758 11.758-4.177 4.937zm14.795-17.486l-6.44 7.612L45.358 53.64l9.875-8.355 7.382 7.382a3.241 3.241 0 01.181 4.36zm1.734-11.56l-4.558-4.558 4.558-4.558 4.558 4.558-4.558 4.558zm21.066-11.888l-7.386 7.337-9.12-9.12L91.963 8.974a25.017 25.017 0 01-6.367 24.605z" fill="#FFC59E"/></svg><svg fill="none" viewBox="0 0 110 110" id="icon3" xmlns="http://www.w3.org/2000/svg"><path d="M83.992 34.951a29.065 29.065 0 00-.41-4.399c7.662 5.266 16.211 2.493 19.157-5.104 3.601-9.286-4.843-19.185-15.087-23.39-9.035-3.708-19.006-2.735-24.277 5.63a28.908 28.908 0 00-8.379-1.235 28.9 28.9 0 00-8.38 1.236c-5.27-8.366-15.24-9.339-24.276-5.63C12.096 6.263 3.653 16.162 7.254 25.449c2.939 7.58 11.477 10.381 19.157 5.103a29.052 29.052 0 00-.41 4.4C16.363 36.935 0 41.736 0 51.566c0 2.12.795 4.048 2.09 5.737l.004.006v.001l23.9 31.224v11.798c0 1.168.632 2.244 1.652 2.813.5.28 12.445 6.854 27.35 6.854 14.905 0 26.85-6.574 27.35-6.854a3.222 3.222 0 001.652-2.813V88.535l23.9-31.225c1.289-1.657 2.094-3.634 2.094-5.744 0-9.826-16.351-14.628-26-16.615zm1.213-26.93c7.23 2.968 13.58 9.796 11.525 15.098-1.778 4.585-7 5.208-11.73.19l-.046-.05c-2.952-3.132-6.59-6.991-9.888-8.72a29.177 29.177 0 00-5.66-4.246c4.7-6.137 13.1-3.38 15.799-2.272zm-30.209 4.877c12.438 0 22.557 10.119 22.557 22.557v12.89c0 5.705-2.101 11.08-5.938 15.251-4.154.448-8.636.738-13.397.83v-8.302l5.501-5.5a3.223 3.223 0 00-2.278-5.502H48.55a3.223 3.223 0 00-2.279 5.501l5.502 5.501v8.3c-4.795-.09-9.318-.388-13.398-.828-3.836-4.171-5.937-9.546-5.937-15.252v-12.89c0-12.437 10.119-22.556 22.557-22.556zM25.036 23.26l-.045.048c-4.728 5.018-9.95 4.396-11.729-.19-2.082-5.37 4.427-12.185 11.525-15.098 2.7-1.108 11.1-3.865 15.798 2.272a29.168 29.168 0 00-5.66 4.246c-3.298 1.73-6.937 5.59-9.888 8.722zM6.696 52.571c-.168-.354-.25-.682-.25-1.004 0-2.34 5.385-6.919 19.549-10.029v6.806c0 4.977 1.245 9.757 3.584 13.992-5.866-1.066-20.361-4.464-22.883-9.764zm10.018 13.235c6.505 2.116 14.59 3.657 23.625 4.461L43.45 89.25c-6.061-1.44-10.589-3.566-12.108-4.332L16.713 65.806zm60.84 32.537c-3.531 1.651-12.331 5.212-22.557 5.212-10.177 0-19.014-3.567-22.557-5.217v-5.85c4.915 2.002 13.146 4.622 22.557 4.622 9.411 0 17.642-2.62 22.557-4.623v5.856zm1.095-13.422c-2.378 1.205-12.106 5.745-23.652 5.745-1.649 0-3.263-.094-4.825-.258l-3.229-19.694c2.628.124 5.317.188 8.054.188 14.925 0 28.422-1.888 38.283-5.095L78.649 84.92zm24.141-31.54c-2.567 3.34-10.561 6.809-22.375 8.955 2.34-4.235 3.584-9.015 3.584-13.992V41.54c14.164 3.11 19.549 7.688 19.549 10.028 0 .434-.153 1.028-.758 1.814z" fill="#FFC59E"/></svg><svg fill="none" viewBox="0 0 110 110" id="icon4" xmlns="http://www.w3.org/2000/svg"><path d="M103.88 19.333l-.006-.006a.023.023 0 01-.005-.005l-.01-.01-.004-.004-.005-.005a.03.03 0 01-.006-.006l-.002-.001a19.21 19.21 0 00-8.692-4.987 18.971 18.971 0 00-4.95-8.656c-7.538-7.537-19.801-7.537-27.339 0-6.89 6.89-7.38 17.465-2.09 24.873L49.944 41.353a3.221 3.221 0 00-.881 2.91l2.278 11.391a3.222 3.222 0 002.527 2.527L65.26 60.46a3.222 3.222 0 002.91-.882l10.827-10.827c7.482 5.344 18.076 4.731 24.872-2.09 7.534-7.533 7.537-19.79.011-27.328zm-4.567 22.771l-.091.09-.004.004c-5.584 5.474-14.024 4.28-18.033.003l-.098-.097-.007-.007a3.212 3.212 0 00-2.327-.936c-.863.015-1.66.382-2.181.903l-11.74 11.739-7.594-1.52-1.519-7.593 11.699-11.698a3.222 3.222 0 000-4.557c-5.037-5.037-5.037-13.188 0-18.226 5.024-5.024 13.2-5.024 18.225 0a12.46 12.46 0 012.494 3.57 19.243 19.243 0 00-11.606 5.544 3.222 3.222 0 104.556 4.556c5.28-5.28 13.528-4.685 18.214-.012l.002.002.004.003.006.007c5.024 5.024 5.024 13.2 0 18.225zM39.03 34.518l-4.556-4.557a3.222 3.222 0 10-4.557 4.557l4.557 4.556a3.222 3.222 0 104.556-4.556zM36.752 42.565h-9.113a3.222 3.222 0 100 6.443h9.113a3.222 3.222 0 100-6.444zM45.741 24.462a3.222 3.222 0 00-3.221 3.222v9.113a3.222 3.222 0 006.443 0v-9.113a3.222 3.222 0 00-3.222-3.222zM80.038 75.526l-4.556-4.557a3.222 3.222 0 10-4.557 4.557l4.557 4.556a3.222 3.222 0 104.556-4.556zM64 70.026a3.222 3.222 0 00-3.223 3.222v9.113a3.222 3.222 0 006.444 0v-9.113a3.222 3.222 0 00-3.222-3.222zM82.316 60.821h-9.113a3.222 3.222 0 000 6.444h9.113a3.222 3.222 0 000-6.444z" fill="#FFC59E"/><path d="M60.341 65.484a3.224 3.224 0 00-2.453-2.23l-9.285-1.858-1.857-9.285a3.221 3.221 0 00-5.43-1.653L30.53 61.178c-7.545-5.375-18.114-4.68-24.878 2.083-7.537 7.538-7.537 19.801 0 27.339 2.4 2.4 5.361 4.087 8.662 4.951 3.796 14.422 21.85 19.215 32.346 8.718 6.777-6.777 7.481-17.313 2.096-24.865l10.77-10.706a3.22 3.22 0 00.814-3.214zm-18.23 11.44l-.004.004-.002.003a3.226 3.226 0 000 4.556c5.044 5.045 5.025 13.2 0 18.226-7.487 7.487-20.345 3.264-21.818-7.33-.616-4.423.927-8.23 3.592-10.896a3.222 3.222 0 10-4.557-4.556 19.236 19.236 0 00-5.54 11.605 12.456 12.456 0 01-3.573-2.492c-5.024-5.025-5.024-13.201 0-18.226 5.025-5.025 13.201-5.025 18.226 0a3.222 3.222 0 004.55.007l8.619-8.568 1.102 5.51a3.222 3.222 0 002.527 2.527l5.467 1.093-8.589 8.537z" fill="#FFC59E"/></svg><svg fill="none" viewBox="0 0 89 92" id="icon5" xmlns="http://www.w3.org/2000/svg"><path d="M54.45 40.7c2.542 0 4.728-.862 6.564-2.173-1.512 3.286-2.365 6.941-2.365 10.223 0 .65.032 1.313.099 1.98a35.968 35.968 0 00-4.212-3.108c-3.255-2.036-6.894-3.472-10.537-3.472-3.642 0-7.281 1.436-10.536 3.472a35.283 35.283 0 00-3.619 2.612c.038-.5.055-.995.055-1.484 0-3.114-.834-6.517-2.23-9.613a11.746 11.746 0 005.88 1.563c4.39 0 7.434-2.702 9.205-5.713a16.92 16.92 0 001.245-2.628 16.93 16.93 0 001.246 2.628c1.771 3.01 4.815 5.713 9.204 5.713zm12.628-10.022c1.566-3.455 2.421-7.3 2.421-10.528 0-3.254-.798-6.917-2.545-9.887-1.771-3.01-4.815-5.713-9.205-5.713-5.44 0-9.252 3.947-11.483 7.794a26.686 26.686 0 00-2.209 4.951c-.58-1.883-1.354-3.728-2.309-5.406C39.514 7.959 35.701 4 30.25 4c-4.389 0-7.433 2.702-9.204 5.713-1.723 2.93-2.524 6.533-2.545 9.753-.232 3.333.409 7.13 1.796 10.562-1.759-1.115-3.769-1.828-5.997-1.828-3.863 0-6.689 2.023-8.393 4.729C4.287 35.5 3.65 38.679 3.65 41.6c0 4.35 1.63 9.268 4.145 13.12 2.432 3.724 6.376 7.43 11.455 7.43.119 0 .237-.002.353-.006-2.958 4.892-4.953 10.273-4.953 15.206 0 3.667 1.346 6.599 3.917 8.468C20.936 87.541 23.86 88 26.399 88c4.028 0 7.48-1.347 10.24-2.424l.04-.015c2.952-1.153 5.072-1.961 7.32-1.961 1.928 0 3.867.77 6.716 1.938l.062.026C53.374 86.629 56.715 88 60.5 88c2.364 0 5.467-.27 8.074-1.775 2.938-1.694 4.776-4.678 4.776-8.875 0-4.945-2.004-10.34-4.973-15.24.3.027.609.04.923.04 5.312 0 9.269-3.647 11.69-7.472 2.465-3.898 3.91-8.805 3.91-13.078 0-3.067-.84-6.24-2.512-8.748-1.695-2.541-4.459-4.652-8.138-4.652-2.766 0-5.165.99-7.171 2.478z" stroke="#FFC59E" stroke-width="7" stroke-linecap="round" stroke-linejoin="round"/></svg><svg fill="none" viewBox="0 0 20 30" id="map" xmlns="http://www.w3.org/2000/svg"><path d="M19.527 7.226c-.103-.388-.313-.8-.468-1.162C17.201 1.6 13.142 0 9.865 0 5.477 0 .645 2.942 0 9.006v1.24c0 .05.018.515.043.747.362 2.89 2.642 5.962 4.345 8.852 1.833 3.096 3.734 6.142 5.618 9.187 1.161-1.987 2.319-4 3.454-5.935.309-.568.668-1.136.978-1.678.206-.361.6-.722.78-1.058C17.052 17.006 20 13.626 20 10.297V8.929c0-.36-.447-1.625-.473-1.703zm-9.582 6.22c-1.29 0-2.701-.646-3.398-2.427-.104-.283-.095-.851-.095-.903v-.8c0-2.27 1.927-3.303 3.604-3.303 2.065 0 3.662 1.652 3.662 3.716 0 2.065-1.708 3.716-3.773 3.716z" fill="#FFC59E"/></svg></svg>